<?xml version="1.0" encoding="UTF-8"?>
<svg id="Capa_1" xmlns="http://www.w3.org/2000/svg" version="1.1" viewBox="0 0 783 101.9">
  <!-- Generator: Adobe Illustrator 29.8.1, SVG Export Plug-In . SVG Version: 2.1.1 Build 2)  -->
  <defs>
    <style>
      .st0 {
        fill: #a28fa7;
      }

      .st1 {
        stroke: #000;
        stroke-miterlimit: 10;
        stroke-width: 3.7px;
      }
    </style>
  </defs>
  <path class="st0" d="M84.6,48.5l-25.5-25.5c-1.6-1.6-4.1-1.6-5.6,0-1.6,1.6-1.6,4.1,0,5.6l18.7,18.7H4c-2.2,0-4,1.8-4,4s1.8,4,4,4h68.2l-18.7,18.7c-1.6,1.6-1.6,4.1,0,5.6.8.8,1.8,1.2,2.8,1.2s2-.4,2.8-1.2l25.5-25.5c1.6-1.6,1.6-4.1,0-5.6Z"/>
  <g>
    <path class="st1" d="M146,79.1v-.5h3.6c2.5,0,4.7-2.2,4.7-4.7V26.4c0-2.6-2.2-4.7-4.7-4.7h-3.6v-.6h27.8c19,0,27.8,13,27.8,29.1s-9.3,28.9-28.7,28.9h-27,0ZM192.4,50.2c0-15.9-8.8-28.4-21-28.4h-4.4c-2.5,0-4.6,2.1-4.6,4.7v47.4c0,2.5,2.1,4.6,4.6,4.7h4.9c14.1,0,20.6-12.6,20.6-28.4h-.1Z"/>
    <path class="st1" d="M230.4,79.1v-.5h3c2.2,0,3.7-1.7,3.7-3.7l-.2-1-4.6-15.1-20.2,7.6c-1.8.7-3.3,2.3-3.9,4.2-.9,2.9-.8,1.6-1.3,4.7,0,1.8,1.5,3.4,3.4,3.4h3.5v.5h-16.9v-.5h3.8c2.6,0,4.9-1.7,5.8-4.3l15.2-48.9c.2-.3.2-.5.2-.8,0-1.5-1.2-2.8-2.8-2.8h-4.8v-.6h15.2l16,52.5c.9,2.9,3.6,4.9,6.7,4.9h2.8v.5h-24.6ZM232.2,58.2l-9.9-32.7-12.8,41.3s22.7-8.6,22.7-8.6Z"/>
    <path class="st1" d="M249.7,79.1v-.5h3.5c2.6,0,4.7-2.2,4.7-4.7V26.4c0-2.6-2.1-4.7-4.7-4.7h-3.5v-.6h24.5v.6h-3.5c-2.6,0-4.7,2.1-4.7,4.7v47.4c0,2.5,2.1,4.7,4.7,4.7h9.2c4.7,0,8.3-3.8,8.3-8.3s0-1,0-1.4l-.6-4h.6l2.3,14.2h-40.8Z"/>
    <path class="st1" d="M288.7,79.1v-.5h3.5c2.6,0,4.7-2.2,4.7-4.7V26.4c0-2.6-2.1-4.7-4.7-4.7h-3.5v-.6h46l-2.3,14.3h-.5l.6-4v-1.4c0-4.5-3.6-8.3-8.3-8.3h-14.5c-2.6,0-4.7,2.1-4.7,4.7v20.6h12c3.4,0,6.2-2.7,6.2-6.1v-2.9h.5v18.5h-.5v-2.9c0-3.3-2.8-6.1-6.2-6.1h-12v26.3c0,2.5,2.1,4.7,4.7,4.7h14.5c4.7,0,8.3-3.8,8.3-8.3s0-1,0-1.4l-.6-4h.5l2.3,14.2h-46Z"/>
    <path class="st1" d="M354,50.2c0-16.1,12.9-29.2,28.9-29.2s15.3,3.3,20.5,8.6h0l-10.1,13.9-.5-.3,2.4-3.2c1.3-1.8,1.9-3.9,1.9-6,0-6.8-7.4-12.4-14.2-12.4-10.7,0-19.5,12.8-19.5,28.7s9,24.5,19.5,26.5c1,.2,2.2.3,3.4.3,6.9,0,15.4-3.4,20.3-11.6l.8.4c-5.1,8.2-14.1,13.6-24.5,13.6-16,0-28.9-13-28.9-29.1v-.2Z"/>
    <path class="st1" d="M404.8,79.1v-.5h3.5c2.6,0,4.7-2.2,4.7-4.7V26.4c0-2.6-2.1-4.7-4.7-4.7h-3.5v-.6h24.5v.6h-3.5c-2.6,0-4.7,2.1-4.7,4.7v47.4c0,2.5,2.1,4.7,4.7,4.7h9.2c4.7,0,8.3-3.8,8.3-8.3s0-1,0-1.4l-.6-4h.6l2.3,14.2h-40.8Z"/>
    <path class="st1" d="M443.7,79.1v-.5h3.6c2.6,0,4.7-2.2,4.7-4.7V26.4c0-2.6-2.1-4.7-4.7-4.7h-3.6v-.6h24.5v.6h-3.5c-2.6,0-4.7,2.1-4.7,4.7v47.4c0,2.5,2.1,4.7,4.7,4.7h3.5v.5h-24.5Z"/>
    <path class="st1" d="M466.9,50.2c0-16.1,12.9-29.2,28.9-29.2s15.3,3.3,20.5,8.6h0l-10.1,13.9-.5-.3,2.4-3.2c1.3-1.8,1.9-3.9,1.9-6,0-6.8-7.4-12.4-14.2-12.4-10.7,0-19.5,12.8-19.5,28.7s9,24.5,19.5,26.5c1,.2,2.2.3,3.4.3,6.9,0,15.4-3.4,20.3-11.6l.8.4c-5.1,8.2-14.1,13.6-24.5,13.6-16,0-28.9-13-28.9-29.1v-.2Z"/>
    <path class="st1" d="M568.4,79.1v-.5h3c2.2,0,3.7-1.7,3.7-3.7l-.2-1-4.6-15.1-20.2,7.6c-1.8.7-3.3,2.3-3.9,4.2-.9,2.9-.8,1.6-1.3,4.7,0,1.8,1.5,3.4,3.4,3.4h3.5v.5h-16.9v-.5h3.8c2.6,0,4.9-1.7,5.8-4.3l15.2-48.9c.2-.3.2-.5.2-.8,0-1.5-1.2-2.8-2.8-2.8h-4.8v-.6h15.2l16,52.5c.9,2.9,3.6,4.9,6.7,4.9h2.8v.5h-24.6ZM570.2,58.2l-9.9-32.7-12.8,41.3s22.7-8.6,22.7-8.6Z"/>
    <path class="st1" d="M646.9,101.9c-15.3,0-26.1-20.6-34.9-21.5h-1.2c-7.4,0-10.8,7.4-10.8,7.4l-.5-.3c.2-.2,2.9-7.4,11.9-8.3-14.1-1.9-25-14.1-25-28.9s12.9-29.2,28.9-29.2,28.9,13.1,28.9,29.2-11.2,27.3-25.6,29c12.6,1,17.1,12.8,28.6,17.3,3,1.2,5.7,1.6,8.2,1.6,8.9,0,13.8-6.2,13.8-6.2l.5.4s-7.3,9.1-22.6,9.5h-.3,0ZM634.9,50.2c0-15.9-8.8-28.7-19.6-28.7s-19.5,12.8-19.5,28.7,8.8,28.6,19.5,28.6,19.6-12.8,19.6-28.6Z"/>
    <path class="st1" d="M651.1,59.4V26.4c0-2.6-2.1-4.7-4.6-4.7h-3.6v-.6h24.5v.6h-3.6c-2.5,0-4.6,2.1-4.6,4.7v33.2c0,8.5,5.6,17.1,15.4,17.1s15.4-8.6,15.4-17.1V26.4c0-2.6-2.1-4.7-4.7-4.7h-3.5v-.6h16.9v.6h-3.6c-2.5,0-4.6,2.1-4.6,4.7v33c0,10.8-8.8,19.7-19.8,19.7s-19.8-8.8-19.8-19.7h.2Z"/>
    <path class="st1" d="M693.5,79.1v-.5h3.6c2.6,0,4.7-2.2,4.7-4.7V26.4c0-2.6-2.1-4.7-4.7-4.7h-3.6v-.6h24.5v.6h-3.5c-2.6,0-4.7,2.1-4.7,4.7v47.4c0,2.5,2.1,4.7,4.7,4.7h3.5v.5h-24.5ZM702.9,15.3l8.1-7.3.9.9-8.7,6.8-.3-.3h0Z"/>
  </g>
</svg>