<?xml version="1.0" encoding="UTF-8"?>
<svg id="Capa_1" xmlns="http://www.w3.org/2000/svg" version="1.1" viewBox="0 0 552 145.4">
  <!-- Generator: Adobe Illustrator 29.8.1, SVG Export Plug-In . SVG Version: 2.1.1 Build 2)  -->
  <defs>
    <style>
      .st0 {
        fill: #a28fa7;
      }

      .st1 {
        fill: #fdfdfc;
      }

      .st2 {
        stroke: #000;
        stroke-miterlimit: 10;
      }
    </style>
  </defs>
  <g>
    <path class="st1" d="M552,72.7c0,40.2-32.6,72.7-72.7,72.7H72.7C32.6,145.4,0,112.9,0,72.7h0C0,32.6,32.6,0,72.7,0h406.6c40.2,0,72.7,32.6,72.7,72.7h0Z"/>
    <path class="st0" d="M121.7,71.1l-14.2-14.2c-.9-.9-2.3-.9-3.2,0s-.9,2.3,0,3.1l10.4,10.4h-38c-1.2,0-2.2,1-2.2,2.2s1,2.2,2.2,2.2h38l-10.4,10.4c-.9.9-.9,2.3,0,3.1.4.4,1,.7,1.6.7s1.1-.2,1.6-.7l14.2-14.2c.9-.9.9-2.3,0-3.1Z"/>
  </g>
  <g>
    <path class="st2" d="M155.9,88.2v-.3h2c1.4,0,2.6-1.2,2.6-2.6v-26.5c0-1.5-1.2-2.6-2.6-2.6h-2v-.3h15.5c10.6,0,15.5,7.3,15.5,16.2s-5.2,16.1-16,16.1h-15ZM181.8,72.1c0-8.9-4.9-15.9-11.7-15.9h-2.5c-1.4,0-2.6,1.2-2.6,2.6v26.5c0,1.4,1.2,2.6,2.6,2.6h2.7c7.8,0,11.5-7,11.5-15.8Z"/>
    <path class="st2" d="M203,88.2v-.3h1.7c1.2,0,2.1-1,2.1-2.1v-.6c0,0-2.7-8.4-2.7-8.4l-11.3,4.3c-1,.4-1.8,1.3-2.2,2.3-.5,1.6-.4.9-.7,2.6,0,1,.8,1.9,1.9,1.9h1.9v.3h-9.4v-.3h2.1c1.5,0,2.8-1,3.2-2.4l8.5-27.3c0-.1,0-.3,0-.4,0-.8-.7-1.5-1.5-1.5h-2.7v-.3h8.5l8.9,29.3c.5,1.6,2,2.8,3.7,2.8h1.5v.3h-13.7ZM204,76.5l-5.5-18.2-7.2,23,12.7-4.8Z"/>
    <path class="st2" d="M213.7,88.2v-.3h1.9c1.5,0,2.6-1.2,2.6-2.6v-26.5c0-1.5-1.2-2.6-2.6-2.6h-1.9v-.3h13.6v.3h-1.9c-1.5,0-2.6,1.2-2.6,2.6v26.5c0,1.4,1.2,2.6,2.6,2.6h5.1c2.6,0,4.6-2.1,4.6-4.6s0-.5,0-.8l-.3-2.2h.3s1.3,7.9,1.3,7.9h-22.7Z"/>
    <path class="st2" d="M235.4,88.2v-.3h1.9c1.5,0,2.6-1.2,2.6-2.6v-26.5c0-1.5-1.2-2.6-2.6-2.6h-1.9v-.3h25.6l-1.3,8h-.3s.3-2.2.3-2.2c0-.2,0-.5,0-.8,0-2.5-2-4.6-4.6-4.6h-8.1c-1.5,0-2.6,1.2-2.6,2.6v11.5h6.7c1.9,0,3.4-1.5,3.4-3.4v-1.6h.3v10.3h-.3v-1.6c0-1.8-1.5-3.4-3.4-3.4h-6.7v14.7c0,1.4,1.2,2.6,2.6,2.6h8.1c2.6,0,4.6-2.1,4.6-4.6s0-.5,0-.8l-.3-2.2h.3s1.3,7.9,1.3,7.9h-25.6Z"/>
    <path class="st2" d="M271.9,72.1c0-9,7.2-16.3,16.1-16.3s8.5,1.8,11.4,4.8h0s-5.6,7.7-5.6,7.7l-.3-.2,1.4-1.8c.7-1,1.1-2.2,1.1-3.3,0-3.8-4.1-6.9-7.9-6.9-5.9,0-10.9,7.2-10.9,16s5,13.7,10.9,14.8c.6,0,1.2.1,1.9.1,3.8,0,8.6-1.9,11.3-6.5l.4.2c-2.9,4.6-7.9,7.6-13.6,7.6-8.9,0-16.1-7.3-16.1-16.3Z"/>
    <path class="st2" d="M300.2,88.2v-.3h1.9c1.5,0,2.6-1.2,2.6-2.6v-26.5c0-1.5-1.2-2.6-2.6-2.6h-1.9v-.3h13.6v.3h-1.9c-1.5,0-2.6,1.2-2.6,2.6v26.5c0,1.4,1.2,2.6,2.6,2.6h5.1c2.6,0,4.6-2.1,4.6-4.6s0-.5,0-.8l-.3-2.2h.3s1.3,7.9,1.3,7.9h-22.7Z"/>
    <path class="st2" d="M321.9,88.2v-.3h2c1.5,0,2.6-1.2,2.6-2.6v-26.5c0-1.5-1.2-2.6-2.6-2.6h-2v-.3h13.7v.3h-1.9c-1.5,0-2.6,1.2-2.6,2.6v26.5c0,1.4,1.2,2.6,2.6,2.6h1.9v.3h-13.7Z"/>
    <path class="st2" d="M334.9,72.1c0-9,7.2-16.3,16.1-16.3s8.5,1.8,11.4,4.8h0s-5.6,7.7-5.6,7.7l-.3-.2,1.4-1.8c.7-1,1.1-2.2,1.1-3.3,0-3.8-4.1-6.9-7.9-6.9-5.9,0-10.9,7.2-10.9,16s5,13.7,10.9,14.8c.6,0,1.2.1,1.9.1,3.8,0,8.6-1.9,11.3-6.5l.4.2c-2.9,4.6-7.9,7.6-13.6,7.6-8.9,0-16.1-7.3-16.1-16.3Z"/>
    <path class="st2" d="M391.5,88.2v-.3h1.7c1.2,0,2.1-1,2.1-2.1v-.6c0,0-2.7-8.4-2.7-8.4l-11.3,4.3c-1,.4-1.8,1.3-2.2,2.3-.5,1.6-.4.9-.7,2.6,0,1,.8,1.9,1.9,1.9h1.9v.3h-9.4v-.3h2.1c1.5,0,2.8-1,3.2-2.4l8.5-27.3c0-.1,0-.3,0-.4,0-.8-.7-1.5-1.5-1.5h-2.7v-.3h8.5l8.9,29.3c.5,1.6,2,2.8,3.7,2.8h1.5v.3h-13.7ZM392.5,76.5l-5.5-18.2-7.2,23,12.7-4.8Z"/>
    <path class="st2" d="M435.2,100.9c-8.5,0-14.6-11.5-19.4-12h-.7c-4.1,0-6,4.1-6,4.1l-.3-.2c0,0,1.6-4.1,6.6-4.6-7.8-1.1-13.9-7.9-13.9-16.1s7.2-16.3,16.1-16.3,16.1,7.3,16.1,16.3-6.2,15.2-14.3,16.2c7,.6,9.5,7.2,16,9.7,1.7.7,3.2.9,4.5.9,5,0,7.7-3.4,7.7-3.4l.3.2s-4.1,5.1-12.6,5.3h-.1ZM428.6,72.1c0-8.9-4.9-16-10.9-16s-10.9,7.2-10.9,16,4.9,16,10.9,16,10.9-7.2,10.9-16Z"/>
    <path class="st2" d="M437.6,77.2v-18.4c0-1.5-1.2-2.6-2.6-2.6h-2v-.3h13.7v.3h-2c-1.4,0-2.6,1.2-2.6,2.6v18.5c0,4.7,3.1,9.5,8.6,9.5s8.6-4.8,8.6-9.5v-18.5c0-1.5-1.2-2.6-2.6-2.6h-1.9v-.3h9.4v.3h-2c-1.4,0-2.6,1.2-2.6,2.6v18.4c0,6-4.9,11-11,11s-11-4.9-11-11Z"/>
    <path class="st2" d="M461.3,88.2v-.3h2c1.5,0,2.6-1.2,2.6-2.6v-26.5c0-1.5-1.2-2.6-2.6-2.6h-2v-.3h13.7v.3h-1.9c-1.5,0-2.6,1.2-2.6,2.6v26.5c0,1.4,1.2,2.6,2.6,2.6h1.9v.3h-13.7ZM466.5,52.6l4.5-4.1.5.5-4.8,3.8v-.2Z"/>
  </g>
</svg>