<?xml version="1.0" encoding="UTF-8"?>
<svg id="Capa_1" xmlns="http://www.w3.org/2000/svg" version="1.1" viewBox="0 0 636.1 385.6">
  <!-- Generator: Adobe Illustrator 29.8.1, SVG Export Plug-In . SVG Version: 2.1.1 Build 2)  -->
  <defs>
    <style>
      .st0, .st1 {
        fill: #fff;
      }

      .st2 {
        fill: #eadaf7;
      }

      .st1 {
        stroke: #fff;
        stroke-miterlimit: 10;
      }
    </style>
  </defs>
  <path class="st1" d="M318,361.8"/>
  <g>
    <path class="st2" d="M148.9,261.8v-.6h3.8c2.7,0,5-2.3,5-5v-50.8c0-2.8-2.3-5-5-5h-3.8v-.6h29.8c20.3,0,29.8,13.9,29.8,31.1s-9.9,30.9-30.7,30.9h-28.9ZM198.6,230.9c0-17-9.4-30.5-22.5-30.5h-4.7c-2.7,0-4.9,2.2-4.9,5v50.8c0,2.7,2.2,4.9,4.9,5h5.2c15,0,22-13.5,22-30.4h0Z"/>
    <path class="st2" d="M239.3,261.8v-.6h3.2c2.3,0,4-1.9,4-4l-.2-1.1-4.9-16.2-21.6,8.2c-1.9.7-3.5,2.4-4.2,4.5-.9,3.2-.8,1.7-1.4,5,0,1.9,1.6,3.6,3.6,3.6h3.7v.6h-18.1v-.6h4.1c2.8,0,5.3-1.9,6.2-4.6l16.2-52.4c.2-.3.2-.6.2-.8,0-1.6-1.3-3-3-3h-5.1v-.6h16.2l17.1,56.2c.9,3.1,3.8,5.3,7.1,5.3h3v.6h-26.3.2ZM241.2,239.4l-10.6-35-13.7,44.2,24.3-9.2Z"/>
    <path class="st2" d="M304.4,261.8l-35.1-56.8v51.3c0,2.7,2.2,5,5,5h3.7v.6h-18.1v-.6h3.8c2.7,0,4.9-2.3,4.9-5v-50.8c0-2.8-2.2-5-4.9-5h-3.8v-.6h16.4l35.1,56.8v-51.2c0-2.8-2.2-5-5-5h-3.7v-.6h18.1v.6h-3.8c-2.7,0-4.9,2.2-4.9,5v50.8c0,2.7,2,5,4.9,5h3.8v.6h-16.4Z"/>
    <path class="st2" d="M315.3,261.8v-.6h3.8c2.8,0,5-2.3,5-5v-50.8c0-2.8-2.2-5-5-5h-3.8v-.6h26.3v.6h-3.7c-2.8,0-5,2.2-5,5v50.8c0,2.7,2.2,5,5,5h3.7v.6h-26.3Z"/>
    <path class="st2" d="M336,261.8v-.6h3.7c2.8,0,5-2.3,5-5v-50.8c0-2.8-2.2-5-5-5h-3.7v-.6h49.2l-2.5,15.3h-.6l.7-4.3v-1.5c0-4.8-3.9-8.9-8.9-8.9h-15.5c-2.8,0-5,2.2-5,5v22h12.8c3.6,0,6.6-2.9,6.6-6.5v-3.1h.6v19.8h-.6v-3.1c0-3.5-3-6.5-6.6-6.5h-12.8v28.1c0,2.7,2.2,5,5,5h15.5c5,0,8.9-4.1,8.9-8.9s0-1,0-1.5l-.7-4.3h.6l2.5,15.2h-49.2v.2Z"/>
    <path class="st2" d="M383.4,261.8v-.6h3.7c2.8,0,5-2.3,5-5v-50.8c0-2.8-2.2-5-5-5h-3.7v-.6h26.2v.6h-3.7c-2.8,0-5,2.2-5,5v50.8c0,2.7,2.2,5,5,5h9.8c5,0,8.9-4.1,8.9-8.9s0-1,0-1.5l-.6-4.3h.6l2.4,15.2h-43.6,0Z"/>
    <path class="st2" d="M460.9,261.8v-.6h3.2c2.3,0,4-1.9,4-4l-.2-1.1-4.9-16.2-21.6,8.2c-1.9.7-3.5,2.4-4.2,4.5-.9,3.2-.8,1.7-1.4,5,0,1.9,1.6,3.6,3.6,3.6h3.7v.6h-18.1v-.6h4.1c2.8,0,5.3-1.9,6.2-4.6l16.2-52.4c.2-.3.2-.6.2-.8,0-1.6-1.3-3-3-3h-5.1v-.6h16.2l17.1,56.2c.9,3.1,3.8,5.3,7.1,5.3h3v.6h-26.3.2,0ZM462.8,239.4l-10.6-35-13.7,44.2,24.3-9.2h0Z"/>
  </g>
  <g>
    <path class="st0" d="M232.8,99.7c-14.7-1.8-27.4,27.1-39.8,53.6-.9.5-1.6,1-2.2,1.4,2.9-11.6,7.2-26.7,11.9-32,1.8-2.1,3.3-2,3.3-3s-5.3-4.2-6.2-2.8c-9.8,15.5-20,65.2-20.2,68.6,0,2.8,3.8,5.9,4.1,3.4s.9-6,1.9-9.1c2.1-6.5,4.9-14,8-21.8,5-.6,12.1-4.4,19.2-9.9,4-1,7.2-1.5,9.5-1.4,6.4.3,7.8,2,9,7.8,4.6,22.6-33,47.7-47.8,48.3-4.1.2-5.5.3-10.7-1.9-1.1-.5-3.1-1.5-4-2.6-.7-.8-.4-1.8-1-2.4-1.9-2-2.7-2.3-2.4-1.1h0c1.4,5.8-4.8,11.1,19.1,11.1s49.4-33.2,49.4-47.2-2.8-14.5-12.5-14.5h0c-1.4,0-2.9,0-4.5.4,12-10.4,22.8-25.2,22.8-37.4,0,0,0-6.4-7-7.5ZM189.3,161.4h0c.2-1.1.5-2.2.8-3.4.2.1.5.1.8.1-.5,1.2-1,2.2-1.5,3.3h-.1ZM194.8,155.2c.1,0,.2-.3.2-.4,2.6-1.3,5.2-2.4,7.6-3.3-2.4,1.4-5,2.6-7.8,3.7ZM211.1,146c-5.2,1.4-10.6,3.6-14.8,5.6,10.8-24.8,25.8-51.7,37-49.8,0,0,3.1,0,3.1,3.6,0,8.9-8.7,27.7-25.3,40.6Z"/>
    <path class="st0" d="M249.8,148.1c.5-1.1,3-4.9,3.6-6.2s-3.5-4-3.9-2.6-1.6,6.7-1.9,7.6h0c-.2.9,1.7,2.2,2.2,1.2h0Z"/>
    <path class="st0" d="M366.9,201.8c-1.6-16.3,15.2-60.5,17.4-65,2.2-4.5,9.9-14.8,9.9-16.7s1.2-1.9-2.4-1.9-10.7,20.7-14.4,26.3c-1.7,2.4-6.4,8.9-11.5,15.4-1.7-1.2-3.2-2.8-7.6-2.8s-10.8,9.2-12.8,15.2c-4.3,4.7-8.5,8.3-10.9,8.3s-1.5,1.7-1.5-2.1,2.7-8.8,2.9-12.8c.2-2.5-.7-5.6-4.8-5.6s-13.2,12.2-21.2,26.6c0-6.1,6-27.9,12.8-46,5.4.6,5.5,2.1,4.6,2.7-.7.5-.5,1.4.3,1.4s1.6-.9,1.6-2.1-.7-2.7-5.9-3.4c4.5-11.6,9.3-21.5,13-24.4,1.8-1.4,3.6-.5,3.9-1.4s-2.9-2.8-5.3-2.8-1.9.8-2.9,2.1c-3.6,4.8-8.2,14.8-12.5,26.2h-.3c-2.7,0-7.7.3-13.7.8,3.6-9.4,7.2-16.5,10.1-18.7,1.2-.9,2.5-.7,2.6-1.2.3-.9-1.9-1.8-4-2.2-2.2-.4-4-.6-4.4.3-1.7,3.6-4.9,11.8-8.5,22.1-15.2,1.3-34.7,3.6-41.6,5.1-1.9.4-.2,3.9.8,3.6,11-3.2,27.6-5.7,40.3-7.1-2.1,6.3-4.4,13.3-6.5,20.5-3.2,2.4-8.2,5.8-10.3,5.4-.4-.1-.8-.6-1.1-1.3-.9-2.3-1.6-7.1-4.2-7.1-4.1,0-13.4,14.3-15.5,17.2s6.5-20.6,7-22.4c.5-1.8-4-8.2-4-3.7s-1.1,6.3-2.6,11.3c-7.3,9.3-20.9,23.3-24,21.8-2.4-1.1,4-16,8.5-23.1.4-.7-2-3.2-3.8-3.9-.4-.1-.7-.1-1-.1-.4.2-.8.8-2.2,3.6-.2.5.2.6.2,1s1.2-1.6-.1,1-4.6,13.3-4.6,19.3-3.9,3.6,3.6,3.6,16.6-12.6,22.4-19.6c-1.9,6.5-4,12.8-4.4,13.9h.2c-.7,2.1,3,7.2,4,4.7s11.3-21.2,16-21.7c.9,0,1.1,1.6,1.9,3.5.9,2.3,2.7,4.7,5.7,4.6,1.5,0,4.7-2.6,7.5-5-4.3,15.1-7.7,30.7-8,41.9h0c-.2,8.7,5,11.8,6.7,11.2,2.1-.6-2.8-1.8-2.5-10.8.6-16.4,7.7-46.2,15.2-66.3,6.1-.6,10.7-.9,12.5-.9h1.5c-7.4,19.9-14,43.8-14,53.5h.1c0,1.1,3.5,2.5,3.9,1.6,5.8-15.2,18.4-33,22-33s.8-.3.8,1.8-2.2,10.5-2.2,13,2.3,5.3,5.8,5.3,5.4-3.2,9.4-7.4c0,1.7-.5,4.6,4.1,4.6s24.9-27.6,27.5-30.7c-2.8,6.3-12,35.7-13.2,40.8s-2.5,12.4,1.3,16.1h0c2.4,2.1,4.8,2,4,1.2-.4-.4-1.4-2.1-1.7-5.4h.1ZM349.1,177.1h-.1c-.2,0-.4,3.3-.4-.6s9.3-16.6,13.9-16.6,1.7.5,2.5,1c-6.5,8.1-13.5,16.1-15.9,16.1h0Z"/>
    <path class="st0" d="M469.1,159.7c-.9.5-9.4,6.2-20.1,14.2,1.9-6.6,3.2-12.7,3.7-17.5.3-2.2-2.9-3.8-2.9-2.8s0,1.9-.3,2.9c-1.4,4.1-14.9,21.5-20.9,22-2.8.3,6.5-15.3,6.5-17.1s-1.5-2.7-2.6-3.3c-.4-.1-.7-.1-1-.1-.4.2-.8.8-2.2,3.6-.2.5.2.6.2,1s0,.6-.1,1c0,.3-.2.6-.4,1-5.9,6.7-19,22.3-22.6,22.3s-1.2,3.6-1.2-1.3,7.1-24.8,7.1-26.5-1.9-2.8-2.8-2.8-1.8,1-3.9,3.7c-2.2,2.7-14.3,17.9-17.2,17.9s-.7,6-.7-.8,9.1-18,12.5-18,2.8,2.5,3.6,1.4c.5-.7-1.3-4.7-7.1-4.7s-12.4,16.2-12.4,20.5-.9,4.1,3.4,4.1,14.1-14.5,20.6-20.5c-2.3,7.7-6.6,17.9-6.6,23.2h0c0,2.3,2.5,5.7,5.8,5.7s6.3-4.6,10.8-9.7c3.1-3.5,6.3-7.3,8.9-10.3-1.2,2.8-2.3,5.9-2.3,7.8,0,3.5,1.8,5.1,4.7,5.1s14.3-12.7,18.4-18.6c-1.5,5.4-3,10.4-4.6,15.2-18.9,14.7-41.2,34.5-41.2,46h0c0,3.5-4.6,7.4,9.3,7.4s29.2-30.4,36.7-55.2c8.1-6,15.9-11.4,22.1-15.2,1-.7-.8-1.9-1.3-1.6h.1ZM409.1,229.2h0c-2.9,0-4.3,5.1-4.3-5.3s18.5-28.1,37.6-43c-11.3,32.1-25.6,48.2-33.3,48.3h0Z"/>
  </g>
</svg>